<?xml version="1.0" encoding="utf-8"?>
<!-- Generator: Adobe Illustrator 17.1.0, SVG Export Plug-In . SVG Version: 6.00 Build 0)  -->
<!DOCTYPE svg PUBLIC "-//W3C//DTD SVG 1.1//EN" "http://www.w3.org/Graphics/SVG/1.1/DTD/svg11.dtd">
<svg version="1.1" id="Layer_1" xmlns="http://www.w3.org/2000/svg" xmlns:xlink="http://www.w3.org/1999/xlink" x="0px" y="0px"
	 viewBox="354.8 267.4 257.2 257.2" enable-background="new 354.8 267.4 257.2 257.2" xml:space="preserve">
<path fill="#BED898" d="M483.4,524.6c71,0,128.6-57.6,128.6-128.6c0-71-57.6-128.6-128.6-128.6S354.8,325,354.8,396
	S412.4,524.6,483.4,524.6"/>
<path fill="#84973A" d="M452.4,374.2h13.3v-12.9c0-5.7,0.1-14.5,4.3-19.9c4.4-5.8,10.3-9.7,20.6-9.7c16.8,0,23.8,2.4,23.8,2.4
	l-3.3,19.7c0,0-5.5-1.6-10.7-1.6c-5.2,0-9.8,1.9-9.8,7v15h21.2l-1.5,19.2h-19.7v66.8h-24.9v-66.8h-13.3L452.4,374.2L452.4,374.2z"/>
</svg>
