<?xml version="1.0" encoding="utf-8"?>
<!-- Generator: Adobe Illustrator 17.1.0, SVG Export Plug-In . SVG Version: 6.00 Build 0)  -->
<!DOCTYPE svg PUBLIC "-//W3C//DTD SVG 1.1//EN" "http://www.w3.org/Graphics/SVG/1.1/DTD/svg11.dtd">
<svg version="1.1" id="Layer_1" xmlns="http://www.w3.org/2000/svg" xmlns:xlink="http://www.w3.org/1999/xlink" x="0px" y="0px"
	 viewBox="0 0 161.686 170.888" enable-background="new 0 0 161.686 170.888" xml:space="preserve">
<path fill="#244021" d="M9.418,60.052c14.757-4.744,100.107-8.455,66.545,35.772c0,0,44.071-51.846-42.9-53.164
	c-13.761,0.56-26.051,2.346-32.448,5.035C-2.843,49.148,9.418,60.052,9.418,60.052z"/>
<path fill="#BED898" d="M52.729,45.158C25.012,29.172,70.783,35.055,92.859,0C92.433,23.824,95.925,61.72,52.729,45.158z"/>
<path fill="#244021" d="M49.879,44.944c3.133-0.205,26.84-17.798,34.829-25.556c0,0-17.372,27.878-27.275,30.412
	S49.879,44.944,49.879,44.944z"/>
<path fill="#AD291C" d="M161.686,114.293c0,36.242-35.609,57.483-79.357,56.466c-46.801,2.035-78.34-20.224-78.34-56.466
	S45.702,56.81,83.346,77.158C128.112,60.88,161.686,78.051,161.686,114.293z"/>
<path fill="#F1553C" d="M110.816,80.21c-9.843-3.281,54.94,7.122,29.505,48.835S153.547,94.454,110.816,80.21z"/>
<path fill="#244021" d="M82.329,75.123c17.296,1.017,29.505-2.035,41.714-14.244c0,0-25.435,11.191-35.609,8.139
	S82.329,75.123,82.329,75.123z"/>
<path fill="#244021" d="M85.286,76.944c-11.539,6.475-21.729,6.281-36.884-5.482c0,0,23.849,6.509,29.306-0.4
	C83.165,64.153,85.286,76.944,85.286,76.944z"/>
<path fill="#244021" d="M84.615,74.153c9.526-4.485,14.322-10.89,14.435-25.165c0,0-7.52,17.498-14.379,18.027
	S84.615,74.153,84.615,74.153z"/>
<path fill="#244021" d="M80.688,73.589c-10.523,0.356-17.713-3.156-24.327-15.806c0,0,14.676,12.139,21.02,9.481
	C83.725,64.606,80.688,73.589,80.688,73.589z"/>
<path fill="#244021" d="M87.688,76.932c3.929-9.768,3.086-17.725-6.544-28.263c0,0,6.395,17.94,1.729,22.994
	C78.208,76.717,87.688,76.932,87.688,76.932z"/>
<path fill="#244021" d="M82.168,71.575c3.473,8.993,11.922,13.283,26.352,12.134c0,0-18.099-5.93-19.238-12.714
	S82.168,71.575,82.168,71.575z"/>
<g>
	<rect x="17.469" y="89.876" fill="none" width="114.697" height="68.485"/>
	<text transform="matrix(1 0 0 1 17.4691 112.5503)"><tspan x="0" y="0" fill="#FFFFFF" font-family="'Gabriela-Regular'" font-size="28.996">Yummy </tspan><tspan x="0" y="36.626" fill="#FFFFFF" font-family="'Gabriela-Regular'" font-size="41.2048">Yums</tspan></text>
</g>
</svg>
