<?xml version="1.0" encoding="utf-8"?>
<!-- Generator: Adobe Illustrator 17.1.0, SVG Export Plug-In . SVG Version: 6.00 Build 0)  -->
<!DOCTYPE svg PUBLIC "-//W3C//DTD SVG 1.1//EN" "http://www.w3.org/Graphics/SVG/1.1/DTD/svg11.dtd">
<svg version="1.1" id="Layer_1" xmlns="http://www.w3.org/2000/svg" xmlns:xlink="http://www.w3.org/1999/xlink" x="0px" y="0px"
	 viewBox="0 0 80.939 34.016" enable-background="new 0 0 80.939 34.016" xml:space="preserve">
<path fill="#BED898" d="M17.008,34.016c9.393,0,17.008-7.614,17.008-17.008C34.016,7.615,26.401,0,17.008,0
	C7.615,0,0,7.615,0,17.008C0,26.401,7.615,34.016,17.008,34.016"/>
<path fill="#84973A" d="M25.541,12.552c-0.626,0.278-1.301,0.466-2.007,0.55c0.722-0.433,1.276-1.117,1.537-1.933
	c-0.676,0.4-1.423,0.691-2.22,0.847c-0.636-0.679-1.545-1.103-2.551-1.103c-1.929,0-3.494,1.565-3.494,3.495
	c0,0.274,0.03,0.54,0.09,0.796c-2.905-0.146-5.479-1.536-7.205-3.652c-0.301,0.518-0.473,1.118-0.473,1.759
	c0,1.211,0.617,2.282,1.555,2.909c-0.573-0.017-1.112-0.176-1.584-0.436v0.043c0,1.694,1.205,3.107,2.805,3.427
	c-0.293,0.082-0.602,0.123-0.921,0.123c-0.225,0-0.445-0.021-0.657-0.062c0.444,1.388,1.735,2.399,3.265,2.426
	c-1.196,0.938-2.704,1.497-4.341,1.497c-0.282,0-0.561-0.016-0.834-0.048c1.547,0.991,3.384,1.57,5.358,1.57
	c6.43,0,9.945-5.325,9.945-9.945c0-0.152-0.003-0.303-0.009-0.452C24.48,13.869,25.074,13.253,25.541,12.552"/>
<path fill="#BED898" d="M63.931,34.016c9.393,0,17.008-7.614,17.008-17.008C80.939,7.615,73.324,0,63.931,0
	c-9.393,0-17.008,7.615-17.008,17.008C46.923,26.401,54.538,34.016,63.931,34.016"/>
<path fill="#84973A" d="M59.828,14.128h1.758v-1.709c0-0.753,0.019-1.916,0.566-2.635c0.577-0.762,1.368-1.28,2.73-1.28
	c2.218,0,3.152,0.316,3.152,0.316l-0.439,2.605c0,0-0.733-0.212-1.417-0.212c-0.684,0-1.296,0.245-1.296,0.929v1.986h2.804
	l-0.196,2.544h-2.608v8.839h-3.296v-8.839h-1.758V14.128z"/>
</svg>
