<?xml version="1.0" encoding="utf-8"?>
<!-- Generator: Adobe Illustrator 17.1.0, SVG Export Plug-In . SVG Version: 6.00 Build 0)  -->
<!DOCTYPE svg PUBLIC "-//W3C//DTD SVG 1.1//EN" "http://www.w3.org/Graphics/SVG/1.1/DTD/svg11.dtd">
<svg version="1.1" id="Layer_1" xmlns="http://www.w3.org/2000/svg" xmlns:xlink="http://www.w3.org/1999/xlink" x="0px" y="0px"
	 viewBox="0 0 257.203 257.203" enable-background="new 0 0 257.203 257.203" xml:space="preserve">
<path fill="#BED898" d="M128.602,257.203c71.023,0,128.602-57.571,128.602-128.602C257.203,57.579,199.625,0,128.602,0
	S0,57.579,0,128.602S57.579,257.203,128.602,257.203"/>
<path fill="#84983A" d="M193.122,94.909c-4.733,2.102-9.837,3.524-15.175,4.159c5.459-3.274,9.648-8.446,11.622-14.616
	c-5.111,3.024-10.76,5.225-16.786,6.404c-4.809-5.134-11.682-8.34-19.289-8.34c-14.586,0-26.419,11.833-26.419,26.427
	c0,2.072,0.227,4.083,0.681,6.019c-21.965-1.104-41.428-11.614-54.479-27.614C71,91.264,69.7,95.801,69.7,100.648
	c0,9.157,4.665,17.255,11.758,21.996c-4.333-0.129-8.408-1.331-11.977-3.297v0.325c0,12.809,9.111,23.493,21.209,25.912
	c-2.215,0.62-4.552,0.93-6.964,0.93c-1.701,0-3.365-0.159-4.968-0.469c3.357,10.495,13.119,18.139,24.687,18.344
	c-9.043,7.092-20.446,11.319-32.823,11.319c-2.132,0-4.242-0.121-6.306-0.363c11.697,7.493,25.587,11.871,40.513,11.871
	c48.619,0,75.197-40.264,75.197-75.197c0-1.149-0.023-2.291-0.068-3.418C185.099,104.867,189.591,100.209,193.122,94.909"/>
</svg>
